<svg width="819.55244140625px" height="280.26992187499997px" xmlns="http://www.w3.org/2000/svg" viewBox="-159.77622070312498 -65.13496093749998 819.55244140625 280.26992187499997" style="background-image: none; background-position: initial initial; background-repeat: initial initial;" preserveAspectRatio="xMidYMid"><defs><filter id="editing-hole" x="-100%" y="-100%" width="300%" height="300%"><feFlood flood-color="#633801" result="black"></feFlood><feMorphology operator="dilate" radius="2" in="SourceGraphic" result="erode"></feMorphology><feGaussianBlur in="erode" stdDeviation="4" result="blur"></feGaussianBlur><feOffset in="blur" dx="2" dy="2" result="offset"></feOffset><feComposite operator="atop" in="offset" in2="black" result="merge"></feComposite><feComposite operator="in" in="merge" in2="SourceGraphic" result="inner-shadow"></feComposite></filter></defs><g filter="url(#editing-hole)"><g transform="translate(-53.515010833740234, 124.06562805175781)"><path d="M33.57 0.55L33.57 0.55Q27.25 0.55 19.29-0.55L19.29-0.55L19.29-0.55Q14.93-1.09 13.30-2.83L13.30-2.83L13.30-2.83Q11.66-4.58 11.88-8.50L11.88-8.50L11.88-8.50Q12.64-19.29 15.48-35.15L15.48-35.15L15.48-35.15Q18.31-51.01 22.34-65.73L22.34-65.73L22.34-65.73Q23.11-68.45 25.40-69.54L25.40-69.54L25.40-69.54Q27.69-70.63 31.39-70.63L31.39-70.63L31.39-70.63Q38.04-70.63 38.04-66.93L38.04-66.93L38.04-66.93Q38.04-65.40 37.39-63.44L37.39-63.44L37.39-63.44Q34.55-54.72 31.72-40.06L31.72-40.06L31.72-40.06Q28.89-25.40 27.69-12.10L27.69-12.10L27.69-12.10Q30.96-11.77 35.10-11.77L35.10-11.77L35.10-11.77Q54.17-11.77 63.60-23.33L63.60-23.33L63.60-23.33Q73.03-34.88 73.03-54.17L73.03-54.17L73.03-54.17Q73.03-67.14 65.62-74.23L65.62-74.23L65.62-74.23Q58.21-81.31 44.69-81.31L44.69-81.31L44.69-81.31Q35.97-81.31 27.41-78.59L27.41-78.59L27.41-78.59Q18.86-75.86 11.99-71.39L11.99-71.39L11.99-71.39Q10.57-70.41 8.94-70.41L8.94-70.41L8.94-70.41Q7.08-70.41 6.00-71.99L6.00-71.99L6.00-71.99Q4.91-73.58 4.91-75.86L4.91-75.86L4.91-75.86Q4.91-78.48 5.78-80.17L5.78-80.17L5.78-80.17Q6.65-81.86 8.72-83.28L8.72-83.28L8.72-83.28Q16.24-88.40 26.38-91.07L26.38-91.07L26.38-91.07Q36.52-93.74 45.89-93.74L45.89-93.74L45.89-93.74Q59.19-93.74 68.89-89.11L68.89-89.11L68.89-89.11Q78.59-84.47 83.82-75.54L83.82-75.54L83.82-75.54Q89.05-66.60 89.05-53.95L89.05-53.95L89.05-53.95Q89.05-37.50 82.51-25.23L82.51-25.23L82.51-25.23Q75.97-12.97 63.44-6.21L63.44-6.21L63.44-6.21Q50.90 0.55 33.57 0.55L33.57 0.55ZM104.09 0.55L104.09 0.55Q99.95 0.55 98.26-3.81L98.26-3.81L98.26-3.81Q96.57-8.18 96.57-17.77L96.57-17.77L96.57-17.77Q96.57-31.94 100.61-44.69L100.61-44.69L100.61-44.69Q101.59-47.85 103.82-49.32L103.82-49.32L103.82-49.32Q106.06-50.79 110.09-50.79L110.09-50.79L110.09-50.79Q112.27-50.79 113.14-50.25L113.14-50.25L113.14-50.25Q114.01-49.70 114.01-48.18L114.01-48.18L114.01-48.18Q114.01-46.43 112.38-40.33L112.38-40.33L112.38-40.33Q111.29-35.97 110.63-32.70L110.63-32.70L110.63-32.70Q109.98-29.43 109.54-24.63L109.54-24.63L109.54-24.63Q113.14-34.01 117.61-39.89L117.61-39.89L117.61-39.89Q122.08-45.78 126.39-48.29L126.39-48.29L126.39-48.29Q130.69-50.79 134.29-50.79L134.29-50.79L134.29-50.79Q141.37-50.79 141.37-43.71L141.37-43.71L141.37-43.71Q141.37-42.29 140.39-36.84L140.39-36.84L140.39-36.84Q139.52-32.48 139.52-31.39L139.52-31.39L139.52-31.39Q139.52-27.58 142.25-27.58L142.25-27.58L142.25-27.58Q145.30-27.58 150.09-32.37L150.09-32.37L150.09-32.37Q151.51-33.79 153.04-33.79L153.04-33.79L153.04-33.79Q154.45-33.79 155.27-32.54L155.27-32.54L155.27-32.54Q156.09-31.28 156.09-29.21L156.09-29.21L156.09-29.21Q156.09-25.18 153.91-22.89L153.91-22.89L153.91-22.89Q150.86-19.73 146.77-17.49L146.77-17.49L146.77-17.49Q142.68-15.26 138.10-15.26L138.10-15.26L138.10-15.26Q132.33-15.26 129.33-18.20L129.33-18.20L129.33-18.20Q126.33-21.15 126.33-26.16L126.33-26.16L126.33-26.16Q126.33-27.79 126.66-29.43L126.66-29.43L126.66-29.43Q126.88-31.61 126.88-32.37L126.88-32.37L126.88-32.37Q126.88-34.12 125.68-34.12L125.68-34.12L125.68-34.12Q124.04-34.12 121.37-30.47L121.37-30.47L121.37-30.47Q118.70-26.81 116.08-20.82L116.08-20.82L116.08-20.82Q113.47-14.82 111.83-8.18L111.83-8.18L111.83-8.18Q110.63-3.05 109.05-1.25L109.05-1.25L109.05-1.25Q107.47 0.55 104.09 0.55L104.09 0.55ZM153.47 0.55L153.47 0.55Q148.68 0.55 146.22-2.07L146.22-2.07L146.22-2.07Q143.77-4.69 143.77-8.94L143.77-8.94L143.77-8.94Q143.77-13.84 146.55-16.79L146.55-16.79L146.55-16.79Q149.33-19.73 154.34-19.73L154.34-19.73L154.34-19.73Q159.14-19.73 161.59-17.39L161.59-17.39L161.59-17.39Q164.04-15.04 164.04-10.46L164.04-10.46L164.04-10.46Q164.04-5.45 161.21-2.45L161.21-2.45L161.21-2.45Q158.38 0.55 153.47 0.55L153.47 0.55ZM246.99 0.55L246.99 0.55Q234.02 0.55 224.43-4.20L224.43-4.20L224.43-4.20Q214.84-8.94 209.72-17.66L209.72-17.66L209.72-17.66Q204.59-26.38 204.59-37.93L204.59-37.93L204.59-37.93Q204.59-53.95 210.64-66.38L210.64-66.38L210.64-66.38Q216.69-78.81 227.05-85.62L227.05-85.62L227.05-85.62Q237.40-92.43 250.05-92.43L250.05-92.43L250.05-92.43Q261.82-92.43 267.92-86.38L267.92-86.38L267.92-86.38Q274.03-80.33 274.03-70.41L274.03-70.41L274.03-70.41Q274.03-63.77 271.68-59.73L271.68-59.73L271.68-59.73Q269.34-55.70 264.98-55.70L264.98-55.70L264.98-55.70Q261.93-55.70 260.18-57.12L260.18-57.12L260.18-57.12Q258.44-58.53 258.44-61.26L258.44-61.26L258.44-61.26Q258.44-62.24 258.88-64.86L258.88-64.86L258.88-64.86Q259.53-68.13 259.53-70.09L259.53-70.09L259.53-70.09Q259.53-80.01 248.96-80.01L248.96-80.01L248.96-80.01Q241.76-80.01 235.22-75.32L235.22-75.32L235.22-75.32Q228.68-70.63 224.65-61.53L224.65-61.53L224.65-61.53Q220.62-52.43 220.62-39.89L220.62-39.89L220.62-39.89Q220.62-26.81 227.92-19.67L227.92-19.67L227.92-19.67Q235.22-12.54 249.50-12.54L249.50-12.54L249.50-12.54Q256.59-12.54 263.83-14.33L263.83-14.33L263.83-14.33Q271.08-16.13 279.91-19.84L279.91-19.84L279.91-19.84Q281.55-20.49 282.64-20.49L282.64-20.49L282.64-20.49Q284.38-20.49 285.25-19.18L285.25-19.18L285.25-19.18Q286.13-17.88 286.13-15.80L286.13-15.80L286.13-15.80Q286.13-9.16 278.93-6.00L278.93-6.00L278.93-6.00Q271.19-2.62 262.85-1.04L262.85-1.04L262.85-1.04Q254.51 0.55 246.99 0.55L246.99 0.55ZM291.03 0.55L291.03 0.55Q284.27 0.55 280.24-4.36L280.24-4.36L280.24-4.36Q276.21-9.27 276.21-17.22L276.21-17.22L276.21-17.22Q276.21-25.94 280.24-33.74L280.24-33.74L280.24-33.74Q284.27-41.53 290.98-46.27L290.98-46.27L290.98-46.27Q297.68-51.01 305.20-51.01L305.20-51.01L305.20-51.01Q307.60-51.01 308.42-50.09L308.42-50.09L308.42-50.09Q309.23-49.16 309.78-46.76L309.78-46.76L309.78-46.76Q312.07-47.20 314.57-47.20L314.57-47.20L314.57-47.20Q319.91-47.20 319.91-43.38L319.91-43.38L319.91-43.38Q319.91-41.09 318.28-32.48L318.28-32.48L318.28-32.48Q315.77-19.95 315.77-15.04L315.77-15.04L315.77-15.04Q315.77-13.41 316.59-12.43L316.59-12.43L316.59-12.43Q317.41-11.45 318.72-11.45L318.72-11.45L318.72-11.45Q320.79-11.45 323.73-14.12L323.73-14.12L323.73-14.12Q326.67-16.79 331.69-22.78L331.69-22.78L331.69-22.78Q332.99-24.31 334.63-24.31L334.63-24.31L334.63-24.31Q336.05-24.31 336.86-23.00L336.86-23.00L336.86-23.00Q337.68-21.69 337.68-19.40L337.68-19.40L337.68-19.40Q337.68-15.04 335.61-12.64L335.61-12.64L335.61-12.64Q331.14-7.08 326.13-3.27L326.13-3.27L326.13-3.27Q321.11 0.55 316.43 0.55L316.43 0.55L316.43 0.55Q312.83 0.55 309.83-1.91L309.83-1.91L309.83-1.91Q306.83-4.36 305.31-8.61L305.31-8.61L305.31-8.61Q299.64 0.55 291.03 0.55L291.03 0.55ZM294.95-10.46L294.95-10.46Q297.35-10.46 299.53-13.30L299.53-13.30L299.53-13.30Q301.71-16.13 302.69-20.82L302.69-20.82L306.73-40.88L306.73-40.88Q302.15-40.77 298.28-37.44L298.28-37.44L298.28-37.44Q294.41-34.12 292.12-28.67L292.12-28.67L292.12-28.67Q289.83-23.22 289.83-17.11L289.83-17.11L289.83-17.11Q289.83-13.73 291.19-12.10L291.19-12.10L291.19-12.10Q292.56-10.46 294.95-10.46L294.95-10.46ZM349.13 2.94L349.13 2.94Q343.46 2.94 340.46 0.33L340.46 0.33L340.46 0.33Q337.46-2.29 337.46-5.56L337.46-5.56L337.46-5.56Q337.46-8.39 339.53-10.46L339.53-10.46L339.53-10.46Q341.61-12.54 345.64-12.54L345.64-12.54L345.64-12.54Q347.06-12.54 348.96-12.26L348.96-12.26L348.96-12.26Q350.87-11.99 351.85-11.88L351.85-11.88L351.85-11.88Q351.74-14.71 350.60-17.22L350.60-17.22L350.60-17.22Q349.45-19.73 347.71-22.07L347.71-22.07L347.71-22.07Q345.97-24.42 344.44-26.16L344.44-26.16L344.44-26.16Q341.06-19.73 337.74-15.48L337.74-15.48L337.74-15.48Q334.41-11.23 330.49-7.41L330.49-7.41L330.49-7.41Q328.53-5.45 326.35-5.45L326.35-5.45L326.35-5.45Q324.60-5.45 323.51-6.70L323.51-6.70L323.51-6.70Q322.42-7.96 322.42-9.81L322.42-9.81L322.42-9.81Q322.42-11.99 323.95-13.84L323.95-13.84L325.37-15.59L325.37-15.59Q331.36-23.00 334.41-27.79L334.41-27.79L334.41-27.79Q336.26-30.96 338.77-36.24L338.77-36.24L338.77-36.24Q341.28-41.53 343.68-47.20L343.68-47.20L343.68-47.20Q345.75-51.99 352.29-51.99L352.29-51.99L352.29-51.99Q355.34-51.99 356.54-51.45L356.54-51.45L356.54-51.45Q357.74-50.90 357.74-49.70L357.74-49.70L357.74-49.70Q357.74-49.05 357.30-47.63L357.30-47.63L357.30-47.63Q356.87-46.22 356.10-44.80L356.10-44.80L356.10-44.80Q354.14-40.88 354.14-38.15L354.14-38.15L354.14-38.15Q354.14-36.52 355.29-34.55L355.29-34.55L355.29-34.55Q356.43-32.59 358.83-29.65L358.83-29.65L358.83-29.65Q362.32-25.07 364.11-21.85L364.11-21.85L364.11-21.85Q365.91-18.64 365.91-14.82L365.91-14.82L365.91-14.82Q365.91-13.73 365.69-11.77L365.69-11.77L365.69-11.77Q371.04-13.84 378.23-22.78L378.23-22.78L378.23-22.78Q379.54-24.31 381.17-24.31L381.17-24.31L381.17-24.31Q382.59-24.31 383.41-23.00L383.41-23.00L383.41-23.00Q384.22-21.69 384.22-19.40L384.22-19.40L384.22-19.40Q384.22-15.26 382.15-12.64L382.15-12.64L382.15-12.64Q376.70-5.89 371.74-3.43L371.74-3.43L371.74-3.43Q366.78-0.98 359.48-0.76L359.48-0.76L359.48-0.76Q355.12 2.94 349.13 2.94L349.13 2.94ZM395.67 2.94L395.67 2.94Q390.00 2.94 387.00 0.33L387.00 0.33L387.00 0.33Q384.01-2.29 384.01-5.56L384.01-5.56L384.01-5.56Q384.01-8.39 386.08-10.46L386.08-10.46L386.08-10.46Q388.15-12.54 392.18-12.54L392.18-12.54L392.18-12.54Q393.60-12.54 395.51-12.26L395.51-12.26L395.51-12.26Q397.41-11.99 398.39-11.88L398.39-11.88L398.39-11.88Q398.29-14.71 397.14-17.22L397.14-17.22L397.14-17.22Q396.00-19.73 394.25-22.07L394.25-22.07L394.25-22.07Q392.51-24.42 390.98-26.16L390.98-26.16L390.98-26.16Q387.60-19.73 384.28-15.48L384.28-15.48L384.28-15.48Q380.95-11.23 377.03-7.41L377.03-7.41L377.03-7.41Q375.07-5.45 372.89-5.45L372.89-5.45L372.89-5.45Q371.14-5.45 370.06-6.70L370.06-6.70L370.06-6.70Q368.96-7.96 368.96-9.81L368.96-9.81L368.96-9.81Q368.96-11.99 370.49-13.84L370.49-13.84L371.91-15.59L371.91-15.59Q377.90-23.00 380.95-27.79L380.95-27.79L380.95-27.79Q382.81-30.96 385.31-36.24L385.31-36.24L385.31-36.24Q387.82-41.53 390.22-47.20L390.22-47.20L390.22-47.20Q392.29-51.99 398.83-51.99L398.83-51.99L398.83-51.99Q401.88-51.99 403.08-51.45L403.08-51.45L403.08-51.45Q404.28-50.90 404.28-49.70L404.28-49.70L404.28-49.70Q404.28-49.05 403.84-47.63L403.84-47.63L403.84-47.63Q403.41-46.22 402.65-44.80L402.65-44.80L402.65-44.80Q400.68-40.88 400.68-38.15L400.68-38.15L400.68-38.15Q400.68-36.52 401.83-34.55L401.83-34.55L401.83-34.55Q402.97-32.59 405.37-29.65L405.37-29.65L405.37-29.65Q408.86-25.07 410.66-21.85L410.66-21.85L410.66-21.85Q412.46-18.64 412.46-14.82L412.46-14.82L412.46-14.82Q412.46-13.73 412.24-11.77L412.24-11.77L412.24-11.77Q417.58-13.84 424.77-22.78L424.77-22.78L424.77-22.78Q426.08-24.31 427.72-24.31L427.72-24.31L427.72-24.31Q429.13-24.31 429.95-23.00L429.95-23.00L429.95-23.00Q430.77-21.69 430.77-19.40L430.77-19.40L430.77-19.40Q430.77-15.26 428.70-12.64L428.70-12.64L428.70-12.64Q423.25-5.89 418.29-3.43L418.29-3.43L418.29-3.43Q413.33-0.98 406.02-0.76L406.02-0.76L406.02-0.76Q401.66 2.94 395.67 2.94L395.67 2.94ZM470.55-24.31L470.55-24.31Q471.97-24.31 472.79-23.00L472.79-23.00L472.79-23.00Q473.61-21.69 473.61-19.40L473.61-19.40L473.61-19.40Q473.61-15.04 471.53-12.64L471.53-12.64L471.53-12.64Q467.50-7.74 460.14-3.60L460.14-3.60L460.14-3.60Q452.79 0.55 444.39 0.55L444.39 0.55L444.39 0.55Q432.95 0.55 426.63-5.67L426.63-5.67L426.63-5.67Q420.30-11.88 420.30-22.67L420.30-22.67L420.30-22.67Q420.30-30.19 423.46-36.68L423.46-36.68L423.46-36.68Q426.63-43.16 432.24-46.98L432.24-46.98L432.24-46.98Q437.85-50.79 444.94-50.79L444.94-50.79L444.94-50.79Q451.26-50.79 455.07-47.03L455.07-47.03L455.07-47.03Q458.89-43.27 458.89-36.84L458.89-36.84L458.89-36.84Q458.89-29.32 453.49-23.93L453.49-23.93L453.49-23.93Q448.10-18.53 435.24-15.37L435.24-15.37L435.24-15.37Q437.96-10.36 445.59-10.36L445.59-10.36L445.59-10.36Q450.50-10.36 456.76-13.79L456.76-13.79L456.76-13.79Q463.03-17.22 467.61-22.78L467.61-22.78L467.61-22.78Q468.92-24.31 470.55-24.31L470.55-24.31ZM443.08-40.11L443.08-40.11Q439.05-40.11 436.27-35.42L436.27-35.42L436.27-35.42Q433.49-30.74 433.49-24.09L433.49-24.09L433.49-23.87L433.49-23.87Q439.92-25.40 443.63-28.45L443.63-28.45L443.63-28.45Q447.34-31.50 447.34-35.53L447.34-35.53L447.34-35.53Q447.34-37.60 446.19-38.86L446.19-38.86L446.19-38.86Q445.05-40.11 443.08-40.11L443.08-40.11ZM513.39-24.31L513.39-24.31Q514.81-24.31 515.62-23.00L515.62-23.00L515.62-23.00Q516.44-21.69 516.44-19.40L516.44-19.40L516.44-19.40Q516.44-15.04 514.37-12.64L514.37-12.64L514.37-12.64Q509.68-6.87 504.13-3.16L504.13-3.16L504.13-3.16Q498.57 0.55 491.37 0.55L491.37 0.55L491.37 0.55Q469.14 0.55 469.14-30.74L469.14-30.74L469.14-30.74Q469.14-35.53 469.46-40.44L469.46-40.44L465.21-40.44L465.21-40.44Q461.94-40.44 460.80-41.64L460.80-41.64L460.80-41.64Q459.65-42.84 459.65-45.45L459.65-45.45L459.65-45.45Q459.65-51.56 464.56-51.56L464.56-51.56L470.77-51.56L470.77-51.56Q472.62-63.55 476.44-73.47L476.44-73.47L476.44-73.47Q480.25-83.39 485.65-89.27L485.65-89.27L485.65-89.27Q491.04-95.16 497.26-95.16L497.26-95.16L497.26-95.16Q501.84-95.16 504.45-91.12L504.45-91.12L504.45-91.12Q507.07-87.09 507.07-80.99L507.07-80.99L507.07-80.99Q507.07-64.09 492.90-51.56L492.90-51.56L505.11-51.56L505.11-51.56Q506.85-51.56 507.61-50.79L507.61-50.79L507.61-50.79Q508.38-50.03 508.38-47.96L508.38-47.96L508.38-47.96Q508.38-40.44 496.06-40.44L496.06-40.44L482.76-40.44L482.76-40.44Q482.54-34.99 482.54-31.94L482.54-31.94L482.54-31.94Q482.54-20.60 485.21-16.02L485.21-16.02L485.21-16.02Q487.88-11.45 493.66-11.45L493.66-11.45L493.66-11.45Q498.35-11.45 501.94-14.28L501.94-14.28L501.94-14.28Q505.54-17.11 510.45-22.78L510.45-22.78L510.45-22.78Q511.75-24.31 513.39-24.31L513.39-24.31ZM494.31-84.69L494.31-84.69Q492.68-84.69 490.66-80.61L490.66-80.61L490.66-80.61Q488.65-76.52 486.85-69.27L486.85-69.27L486.85-69.27Q485.05-62.02 483.85-53.19L483.85-53.19L483.85-53.19Q490.28-58.75 493.50-65.67L493.50-65.67L493.50-65.67Q496.71-72.59 496.71-78.26L496.71-78.26L496.71-78.26Q496.71-84.69 494.31-84.69L494.31-84.69ZM556.23-24.31L556.23-24.31Q557.64-24.31 558.46-23.00L558.46-23.00L558.46-23.00Q559.28-21.69 559.28-19.40L559.28-19.40L559.28-19.40Q559.28-15.04 557.21-12.64L557.21-12.64L557.21-12.64Q552.52-6.87 546.96-3.16L546.96-3.16L546.96-3.16Q541.40 0.55 534.21 0.55L534.21 0.55L534.21 0.55Q511.97 0.55 511.97-30.74L511.97-30.74L511.97-30.74Q511.97-35.53 512.30-40.44L512.30-40.44L508.05-40.44L508.05-40.44Q504.78-40.44 503.63-41.64L503.63-41.64L503.63-41.64Q502.49-42.84 502.49-45.45L502.49-45.45L502.49-45.45Q502.49-51.56 507.39-51.56L507.39-51.56L513.61-51.56L513.61-51.56Q515.46-63.55 519.28-73.47L519.28-73.47L519.28-73.47Q523.09-83.39 528.49-89.27L528.49-89.27L528.49-89.27Q533.88-95.16 540.10-95.16L540.10-95.16L540.10-95.16Q544.67-95.16 547.29-91.12L547.29-91.12L547.29-91.12Q549.90-87.09 549.90-80.99L549.90-80.99L549.90-80.99Q549.90-64.09 535.74-51.56L535.74-51.56L547.94-51.56L547.94-51.56Q549.69-51.56 550.45-50.79L550.45-50.79L550.45-50.79Q551.21-50.03 551.21-47.96L551.21-47.96L551.21-47.96Q551.21-40.44 538.90-40.44L538.90-40.44L525.60-40.44L525.60-40.44Q525.38-34.99 525.38-31.94L525.38-31.94L525.38-31.94Q525.38-20.60 528.05-16.02L528.05-16.02L528.05-16.02Q530.72-11.45 536.50-11.45L536.50-11.45L536.50-11.45Q541.18-11.45 544.78-14.28L544.78-14.28L544.78-14.28Q548.38-17.11 553.28-22.78L553.28-22.78L553.28-22.78Q554.59-24.31 556.23-24.31L556.23-24.31ZM537.15-84.69L537.15-84.69Q535.52-84.69 533.50-80.61L533.50-80.61L533.50-80.61Q531.48-76.52 529.69-69.27L529.69-69.27L529.69-69.27Q527.89-62.02 526.69-53.19L526.69-53.19L526.69-53.19Q533.12-58.75 536.33-65.67L536.33-65.67L536.33-65.67Q539.55-72.59 539.55-78.26L539.55-78.26L539.55-78.26Q539.55-84.69 537.15-84.69L537.15-84.69ZM599.06-24.31L599.06-24.31Q600.48-24.31 601.30-23.00L601.30-23.00L601.30-23.00Q602.12-21.69 602.12-19.40L602.12-19.40L602.12-19.40Q602.12-15.04 600.04-12.64L600.04-12.64L600.04-12.64Q596.01-7.74 588.65-3.60L588.65-3.60L588.65-3.60Q581.30 0.55 572.90 0.55L572.90 0.55L572.90 0.55Q561.46 0.55 555.14-5.67L555.14-5.67L555.14-5.67Q548.81-11.88 548.81-22.67L548.81-22.67L548.81-22.67Q548.81-30.19 551.98-36.68L551.98-36.68L551.98-36.68Q555.14-43.16 560.75-46.98L560.75-46.98L560.75-46.98Q566.36-50.79 573.45-50.79L573.45-50.79L573.45-50.79Q579.77-50.79 583.59-47.03L583.59-47.03L583.59-47.03Q587.40-43.27 587.40-36.84L587.40-36.84L587.40-36.84Q587.40-29.32 582.01-23.93L582.01-23.93L582.01-23.93Q576.61-18.53 563.75-15.37L563.75-15.37L563.75-15.37Q566.47-10.36 574.10-10.36L574.10-10.36L574.10-10.36Q579.01-10.36 585.28-13.79L585.28-13.79L585.28-13.79Q591.54-17.22 596.12-22.78L596.12-22.78L596.12-22.78Q597.43-24.31 599.06-24.31L599.06-24.31ZM571.60-40.11L571.60-40.11Q567.56-40.11 564.78-35.42L564.78-35.42L564.78-35.42Q562.00-30.74 562.00-24.09L562.00-24.09L562.00-23.87L562.00-23.87Q568.43-25.40 572.14-28.45L572.14-28.45L572.14-28.45Q575.85-31.50 575.85-35.53L575.85-35.53L575.85-35.53Q575.85-37.60 574.70-38.86L574.70-38.86L574.70-38.86Q573.56-40.11 571.60-40.11L571.60-40.11Z" fill="#ff8e00"></path></g></g><style>text {
  font-size: 64px;
  font-family: Arial Black;
  dominant-baseline: central;
  text-anchor: middle;
}</style></svg>